<?xml version="1.0" encoding="UTF-8"?>
<!DOCTYPE svg PUBLIC "-//W3C//DTD SVG 1.1//EN" "http://www.w3.org/Graphics/SVG/1.1/DTD/svg11.dtd">
<svg xmlns="http://www.w3.org/2000/svg" version="1.1" width="48px" height="48px" style="shape-rendering:geometricPrecision; text-rendering:geometricPrecision; image-rendering:optimizeQuality; fill-rule:evenodd; clip-rule:evenodd" xmlns:xlink="http://www.w3.org/1999/xlink">
<g><path style="opacity:0.999" fill="#314158" d="M 15.5,-0.5 C 20.8333,-0.5 26.1667,-0.5 31.5,-0.5C 33.8876,0.348502 36.2209,1.3485 38.5,2.5C 38.6713,5.79731 38.0046,6.13065 36.5,3.5C 35.8076,4.02527 35.3076,4.69194 35,5.5C 34,2.83333 33,2.83333 32,5.5C 31.3333,2.83333 30.6667,2.83333 30,5.5C 29,2.83333 28,2.83333 27,5.5C 26,2.83333 25,2.83333 24,5.5C 23,2.83333 22,2.83333 21,5.5C 20,2.83333 19,2.83333 18,5.5C 17,2.83333 16,2.83333 15,5.5C 13.6667,2.83333 12.3333,2.83333 11,5.5C 10.2086,4.25501 9.70858,2.92167 9.5,1.5C 11.6976,1.12487 13.6976,0.458201 15.5,-0.5 Z"/></g>
<g><path style="opacity:0.998" fill="#303f56" d="M 9.5,1.5 C 9.70858,2.92167 10.2086,4.25501 11,5.5C 12.3333,2.83333 13.6667,2.83333 15,5.5C 16,2.83333 17,2.83333 18,5.5C 19,2.83333 20,2.83333 21,5.5C 22,2.83333 23,2.83333 24,5.5C 25,2.83333 26,2.83333 27,5.5C 28,2.83333 29,2.83333 30,5.5C 30.6667,2.83333 31.3333,2.83333 32,5.5C 33,2.83333 34,2.83333 35,5.5C 35.3076,4.69194 35.8076,4.02527 36.5,3.5C 38.0046,6.13065 38.6713,5.79731 38.5,2.5C 39.1667,2.83333 39.8333,3.16667 40.5,3.5C 40.7512,5.17028 41.4178,6.67028 42.5,8C 40.4971,8.33452 38.8304,9.16786 37.5,10.5C 37.5,9.5 37.5,8.5 37.5,7.5C 33.6331,7.24171 29.9664,7.90837 26.5,9.5C 19.3524,8.50837 12.0191,8.17503 4.5,8.5C 4.5,7.5 4.5,6.5 4.5,5.5C 5.94478,3.93731 7.61145,2.60398 9.5,1.5 Z"/></g>
<g><path style="opacity:1" fill="#2f3e54" d="M 4.5,5.5 C 4.5,6.5 4.5,7.5 4.5,8.5C 12.0191,8.17503 19.3524,8.50837 26.5,9.5C 23.7928,11.8432 21.1261,14.1765 18.5,16.5C 13.2663,15.1979 7.93293,15.1979 2.5,16.5C 2.70381,13.4824 3.03714,10.4824 3.5,7.5C 3.32842,6.50838 3.66175,5.84171 4.5,5.5 Z"/></g>
<g><path style="opacity:0.999" fill="#2c394f" d="M 40.5,3.5 C 42.2624,4.26231 43.2624,5.59565 43.5,7.5C 44.3498,14.7985 44.6831,22.1319 44.5,29.5C 40.8274,27.6823 36.8274,27.0157 32.5,27.5C 33.0965,25.602 33.0965,23.9354 32.5,22.5C 34.9755,19.2147 36.6421,15.548 37.5,11.5C 37.5,11.1667 37.5,10.8333 37.5,10.5C 38.8304,9.16786 40.4971,8.33452 42.5,8C 41.4178,6.67028 40.7512,5.17028 40.5,3.5 Z"/></g>
<g><path style="opacity:0.094" fill="#04060a" d="M 3.5,7.5 C 3.03714,10.4824 2.70381,13.4824 2.5,16.5C 2.5,20.8333 2.5,25.1667 2.5,29.5C 3.3991,35.5704 6.73244,39.737 12.5,42C 19.1667,42.6667 25.8333,42.6667 32.5,42C 34.8516,41.7599 36.8516,40.9265 38.5,39.5C 42.0231,37.1267 44.0231,33.7934 44.5,29.5C 44.6831,22.1319 44.3498,14.7985 43.5,7.5C 45.6658,10.5324 46.9992,13.8657 47.5,17.5C 47.5,21.5 47.5,25.5 47.5,29.5C 46.8122,37.3644 42.8122,42.8644 35.5,46C 33.2922,46.1909 31.2922,46.6909 29.5,47.5C 25.5,47.5 21.5,47.5 17.5,47.5C 9.6356,46.8122 4.1356,42.8122 1,35.5C 0.809116,33.2922 0.309116,31.2922 -0.5,29.5C -0.5,25.5 -0.5,21.5 -0.5,17.5C 0.000843745,13.8657 1.33418,10.5324 3.5,7.5 Z"/></g>
<g><path style="opacity:0.999" fill="#354257" d="M 32.5,14.5 C 32.6499,18.1612 31.1499,19.1612 28,17.5C 27.5172,16.552 27.3505,15.552 27.5,14.5C 29.0378,11.9521 30.7044,11.9521 32.5,14.5 Z"/></g>
<g><path style="opacity:1" fill="#303a4f" d="M 18.5,16.5 C 18.5,17.1667 18.1667,17.5 17.5,17.5C 12.1095,17.5541 8.77613,20.2208 7.5,25.5C 5.61145,26.604 3.94478,27.9373 2.5,29.5C 2.5,25.1667 2.5,20.8333 2.5,16.5C 7.93293,15.1979 13.2663,15.1979 18.5,16.5 Z"/></g>
<g><path style="opacity:1" fill="#f2f1f1" d="M 37.5,10.5 C 37.5,10.8333 37.5,11.1667 37.5,11.5C 35.3862,12.3602 34.2195,14.0268 34,16.5C 33.7216,15.5842 33.2216,14.9175 32.5,14.5C 30.7044,11.9521 29.0378,11.9521 27.5,14.5C 26.6981,15.9516 26.1981,17.6183 26,19.5C 25.2917,20.3805 24.4584,21.0472 23.5,21.5C 21.264,22.3891 19.264,23.7224 17.5,25.5C 16.8165,25.1373 16.1499,24.8039 15.5,24.5C 15.4003,21.8915 16.0669,19.5582 17.5,17.5C 18.1667,17.5 18.5,17.1667 18.5,16.5C 21.1261,14.1765 23.7928,11.8432 26.5,9.5C 29.9664,7.90837 33.6331,7.24171 37.5,7.5C 37.5,8.5 37.5,9.5 37.5,10.5 Z"/></g>
<g><path style="opacity:1" fill="#c6c4c4" d="M 37.5,11.5 C 36.6421,15.548 34.9755,19.2147 32.5,22.5C 31.027,24.3947 29.3603,26.0613 27.5,27.5C 25.7028,28.7298 23.7028,29.3964 21.5,29.5C 21.1667,29.5 20.8333,29.5 20.5,29.5C 20.1961,28.8501 19.8627,28.1835 19.5,27.5C 21.2776,25.736 22.6109,23.736 23.5,21.5C 24.4584,21.0472 25.2917,20.3805 26,19.5C 26.1981,17.6183 26.6981,15.9516 27.5,14.5C 27.3505,15.552 27.5172,16.552 28,17.5C 31.1499,19.1612 32.6499,18.1612 32.5,14.5C 33.2216,14.9175 33.7216,15.5842 34,16.5C 34.2195,14.0268 35.3862,12.3602 37.5,11.5 Z"/></g>
<g><path style="opacity:1" fill="#f33d3c" d="M 17.5,17.5 C 16.0669,19.5582 15.4003,21.8915 15.5,24.5C 15.1667,24.5 14.8333,24.5 14.5,24.5C 12.0642,23.4284 9.89749,24.095 8,26.5C 7.60123,26.2716 7.43456,25.9382 7.5,25.5C 8.77613,20.2208 12.1095,17.5541 17.5,17.5 Z"/></g>
<g><path style="opacity:0.999" fill="#263346" d="M 32.5,22.5 C 33.0965,23.9354 33.0965,25.602 32.5,27.5C 36.8274,27.0157 40.8274,27.6823 44.5,29.5C 44.0231,33.7934 42.0231,37.1267 38.5,39.5C 34.6877,38.6762 30.6877,38.1762 26.5,38C 27.5,37.6667 28.5,37.3333 29.5,37C 27.75,35.2458 27.0833,33.0792 27.5,30.5C 27.5,29.5 27.5,28.5 27.5,27.5C 29.3603,26.0613 31.027,24.3947 32.5,22.5 Z"/></g>
<g><path style="opacity:0.996" fill="#dd3b2f" d="M 23.5,21.5 C 22.6109,23.736 21.2776,25.736 19.5,27.5C 19.8627,28.1835 20.1961,28.8501 20.5,29.5C 19.8333,29.5 19.1667,29.5 18.5,29.5C 18.5654,29.0618 18.3988,28.7284 18,28.5C 12.922,32.5445 12.422,32.0445 16.5,27C 16.2716,26.6012 15.9382,26.4346 15.5,26.5C 15.5,25.8333 15.5,25.1667 15.5,24.5C 16.1499,24.8039 16.8165,25.1373 17.5,25.5C 19.264,23.7224 21.264,22.3891 23.5,21.5 Z"/></g>
<g><path style="opacity:1" fill="#e16c23" d="M 14.5,24.5 C 14.8333,24.5 15.1667,24.5 15.5,24.5C 15.5,25.1667 15.5,25.8333 15.5,26.5C 12.4574,27.7438 11.124,30.0771 11.5,33.5C 14.89,33.8851 17.2233,32.5517 18.5,29.5C 19.1667,29.5 19.8333,29.5 20.5,29.5C 20.8333,29.5 21.1667,29.5 21.5,29.5C 21.5,29.8333 21.5,30.1667 21.5,30.5C 18.6284,34.4681 14.6284,36.1347 9.5,35.5C 9.35123,32.3926 9.85123,29.3926 11,26.5C 11.8159,25.1772 12.9826,24.5106 14.5,24.5 Z"/></g>
<g><path style="opacity:1" fill="#f49862" d="M 15.5,26.5 C 15.9382,26.4346 16.2716,26.6012 16.5,27C 12.422,32.0445 12.922,32.5445 18,28.5C 18.3988,28.7284 18.5654,29.0618 18.5,29.5C 17.2233,32.5517 14.89,33.8851 11.5,33.5C 11.124,30.0771 12.4574,27.7438 15.5,26.5 Z"/></g>
<g><path style="opacity:1" fill="#bf0b09" d="M 27.5,27.5 C 27.5,28.5 27.5,29.5 27.5,30.5C 25.9821,34.6025 22.9821,36.7692 18.5,37C 20.4506,35.2658 21.4506,33.0991 21.5,30.5C 21.5,30.1667 21.5,29.8333 21.5,29.5C 23.7028,29.3964 25.7028,28.7298 27.5,27.5 Z"/></g>
<g><path style="opacity:0.998" fill="#262f40" d="M 14.5,24.5 C 12.9826,24.5106 11.8159,25.1772 11,26.5C 9.85123,29.3926 9.35123,32.3926 9.5,35.5C 14.6284,36.1347 18.6284,34.4681 21.5,30.5C 21.4506,33.0991 20.4506,35.2658 18.5,37C 22.9821,36.7692 25.9821,34.6025 27.5,30.5C 27.0833,33.0792 27.75,35.2458 29.5,37C 28.5,37.3333 27.5,37.6667 26.5,38C 30.6877,38.1762 34.6877,38.6762 38.5,39.5C 36.8516,40.9265 34.8516,41.7599 32.5,42C 25.8333,42.6667 19.1667,42.6667 12.5,42C 6.73244,39.737 3.3991,35.5704 2.5,29.5C 3.94478,27.9373 5.61145,26.604 7.5,25.5C 7.43456,25.9382 7.60123,26.2716 8,26.5C 9.89749,24.095 12.0642,23.4284 14.5,24.5 Z"/></g>
</svg>
